<svg xmlns="http://www.w3.org/2000/svg" width="520" height="360" viewBox="0 0 520 360" role="img" aria-label="Green t-shirt mockup">
  <defs>
    <linearGradient id="g" x1="0" x2="0" y1="0" y2="1">
      <stop offset="0" stop-color="#2a6a3d" />
      <stop offset="1" stop-color="#0f2716" />
    </linearGradient>
    <filter id="d" x="-20%" y="-20%" width="140%" height="140%">
      <feDropShadow dx="0" dy="10" stdDeviation="12" flood-color="#000" flood-opacity="0.35" />
    </filter>
  </defs>
  <rect width="520" height="360" fill="none" />
  <g filter="url(#d)">
    <path d="M130 92l48-38h164l48 38 66 34-40 76-40-20v136c0 16-12 28-28 28H172c-16 0-28-12-28-28V182l-40 20-40-76z" fill="url(#g)" stroke="#fbf4e4" stroke-opacity="0.25" stroke-width="3" />
    <path d="M210 64c12 18 26 28 50 28s38-10 50-28" fill="none" stroke="#fbf4e4" stroke-opacity="0.22" stroke-width="6" stroke-linecap="round" />
    <rect x="184" y="152" width="152" height="88" rx="16" fill="#fbf4e4" opacity="0.12" />
    <text x="260" y="202" text-anchor="middle" font-family="Georgia, 'Times New Roman', serif" font-size="42" font-weight="900" fill="#fbf4e4" opacity="0.78">Jointe</text>
    <text x="260" y="228" text-anchor="middle" font-family="Montserrat, Arial, sans-serif" font-size="12" font-weight="800" letter-spacing="3" fill="#fbf4e4" opacity="0.72">THE JOINTE</text>
  </g>
</svg>

