<svg xmlns="http://www.w3.org/2000/svg" width="520" height="360" viewBox="0 0 520 360" role="img" aria-label="Green hat mockup">
  <defs>
    <linearGradient id="hg" x1="0" x2="0" y1="0" y2="1">
      <stop offset="0" stop-color="#2a6a3d" />
      <stop offset="1" stop-color="#0f2716" />
    </linearGradient>
    <filter id="hd" x="-20%" y="-20%" width="140%" height="140%">
      <feDropShadow dx="0" dy="12" stdDeviation="12" flood-color="#000" flood-opacity="0.35" />
    </filter>
  </defs>
  <rect width="520" height="360" fill="none" />
  <g filter="url(#hd)">
    <path d="M156 202c10-78 66-124 154-124s144 46 154 124c-38 18-92 30-154 30s-116-12-154-30z" fill="url(#hg)" stroke="#fbf4e4" stroke-opacity="0.25" stroke-width="3" />
    <path d="M150 206c60 26 136 36 210 26 34-4 68-12 100-24" fill="none" stroke="#fbf4e4" stroke-opacity="0.2" stroke-width="6" stroke-linecap="round" />
    <path d="M238 160h144c34 0 68 10 102 30-62 28-140 44-214 44-76 0-152-16-214-44 34-20 68-30 102-30z" fill="#0b0f0c" opacity="0.22" />
    <rect x="232" y="148" width="156" height="62" rx="16" fill="#fbf4e4" opacity="0.12" />
    <text x="310" y="188" text-anchor="middle" font-family="Georgia, 'Times New Roman', serif" font-size="40" font-weight="900" fill="#fbf4e4" opacity="0.78">J</text>
    <text x="380" y="188" text-anchor="middle" font-family="Montserrat, Arial, sans-serif" font-size="12" font-weight="800" letter-spacing="3" fill="#fbf4e4" opacity="0.72">JOINTE</text>
  </g>
</svg>

